<?xml version="1.0" encoding="UTF-8" standalone="no"?>
<!DOCTYPE svg PUBLIC "-//W3C//DTD SVG 1.1//EN" "http://www.w3.org/Graphics/SVG/1.1/DTD/svg11.dtd">
<svg xmlns="http://www.w3.org/2000/svg" xmlns:xlink="http://www.w3.org/1999/xlink" version="1.1" width="516.769pt" height="169.596pt" viewBox="0 0 516.769 169.596">
<g enable-background="new">
<g id="Layer-1" data-name="Layer">
<clipPath id="cp0">
<path transform="matrix(1,0,0,-1,0,169.596)" d="M 0 169.596 L 516.769 169.596 L 516.769 0 L 0 0 Z "/>
</clipPath>
<g clip-path="url(#cp0)">
<path transform="matrix(1,0,0,-1,490.6402,135.86479)" d="M 0 0 C .401 .329 .604 .774 .604 1.325 C .604 1.68 .507 2.008 .328 2.284 C .12 2.56 -.149 2.768 -.489 2.908 C -.848 3.052 -1.495 3.111 -2.448 3.111 L -4.635 3.111 L -4.635 -.504 L -2.283 -.504 C -1.176 -.504 -.41 -.334 0 0 M 2.021 -4.91 L 3.485 -7.264 L 1.135 -7.264 L .076 -5.374 C -.759 -3.884 -1.434 -2.949 -1.946 -2.574 C -2.305 -2.298 -2.812 -2.158 -3.506 -2.158 L -4.635 -2.158 L -4.635 -7.264 L -6.578 -7.264 L -6.578 4.732 L -2.448 4.732 C -1.047 4.732 -.029 4.644 .598 4.407 C 1.223 4.189 1.715 3.803 2.108 3.246 C 2.475 2.694 2.65 2.114 2.65 1.489 C 2.65 .61 2.352 -.149 1.715 -.789 C 1.105 -1.451 .267 -1.823 -.759 -1.905 C -.331 -2.078 0 -2.278 .261 -2.53 C .73 -3.008 1.325 -3.796 2.021 -4.91 M 7.563 -1.099 C 7.563 .519 7.162 2.07 6.335 3.58 C 5.5 5.06 4.342 6.207 2.867 7.01 C 1.372 7.816 -.149 8.2 -1.694 8.2 C -3.242 8.2 -4.77 7.816 -6.25 7.01 C -7.725 6.207 -8.886 5.06 -9.728 3.58 C -10.551 2.07 -10.97 .519 -10.97 -1.099 C -10.97 -2.7 -10.56 -4.242 -9.742 -5.716 C -8.915 -7.197 -7.774 -8.34 -6.294 -9.161 C -4.837 -9.988 -3.286 -10.398 -1.694 -10.398 C -.088 -10.398 1.445 -9.988 2.917 -9.161 C 4.406 -8.34 5.538 -7.197 6.355 -5.716 C 7.183 -4.242 7.563 -2.7 7.563 -1.099 M 9.439 -1.099 C 9.439 -3.022 8.933 -4.866 7.95 -6.646 C 6.983 -8.417 5.6 -9.794 3.847 -10.776 C 2.07 -11.759 .249 -12.248 -1.694 -12.248 C -3.614 -12.248 -5.468 -11.759 -7.218 -10.776 C -8.982 -9.794 -10.366 -8.417 -11.34 -6.646 C -12.324 -4.866 -12.814 -3.022 -12.814 -1.099 C -12.814 .848 -12.324 2.709 -11.311 4.495 C -10.328 6.297 -8.93 7.667 -7.159 8.634 C -5.386 9.586 -3.556 10.07 -1.694 10.07 C .173 10.07 1.996 9.586 3.782 8.634 C 5.547 7.667 6.937 6.297 7.927 4.495 C 8.933 2.709 9.439 .848 9.439 -1.099 M -71.568 82.803 C -76.366 85.253 -81.822 86.06 -87.159 86.029 C -91.366 86.004 -95.762 85.548 -99.77 84.218 C -103.049 83.129 -106.188 81.602 -108.938 79.493 C -113.01 76.368 -115.912 72.725 -119.293 68.962 L -119.297 69.066 L -119.417 68.931 L -119.417 69.073 L -119.433 70.475 C -119.447 76.391 -122.219 80.152 -122.662 80.716 C -123.099 81.201 -123.563 81.681 -124.067 82.166 C -125.59 83.629 -127.474 84.554 -129.49 85.134 C -132.33 85.951 -135.525 86.171 -138.469 86.171 C -140.166 86.171 -141.872 86.134 -143.569 86.032 L -143.569 85.703 L -143.569 57.005 L -143.569 -12.248 L -119.418 -12.248 L -119.418 57.005 L -119.417 57.005 L -119.417 58.155 L -119.417 63.578 L -119.029 64.1 C -116.456 67.561 -113.406 70.778 -109.783 73.149 C -106.47 75.319 -102.804 76.597 -98.828 76.592 C -96.036 76.588 -93.269 76.011 -90.92 74.446 C -90.367 74.078 -89.855 73.67 -89.371 73.237 C -85.716 70.396 -82.476 62.264 -82.709 53.4 C -82.709 53.396 -82.71 53.393 -82.71 53.389 L -82.71 16.918 L -82.715 16.918 L -82.715 15.769 L -82.715 4.851 L -82.699 3.448 C -82.685 -2.468 -79.914 -6.229 -79.471 -6.793 C -79.033 -7.277 -78.57 -7.758 -78.065 -8.243 C -76.542 -9.706 -74.659 -10.63 -72.643 -11.21 C -69.802 -12.027 -66.606 -12.248 -63.663 -12.248 C -61.966 -12.248 -60.261 -12.21 -58.563 -12.109 L -58.563 14.202 L -58.563 16.918 L -58.563 40.66 L -58.563 50.399 L -58.563 53.79 C -58.563 60.01 -59.289 67.01 -62.001 72.689 C -64.107 77.094 -67.189 80.569 -71.568 82.803 M -249.391 81.778 C -250.297 82.839 -251.594 83.707 -252.81 84.371 C -254.577 85.337 -256.597 85.853 -258.583 86.116 C -261.334 86.481 -264.269 86.107 -266.958 85.493 C -270.797 84.617 -274.639 82.847 -278.069 80.942 C -282.6 78.425 -286.891 75.153 -290.843 71.811 L -294.086 69.068 L -294.278 69.151 L -294.278 85.921 C -295.976 86.023 -297.68 86.06 -299.377 86.06 C -300.751 86.06 -302.181 86.004 -303.603 85.87 C -303.704 85.86 -303.805 85.858 -303.905 85.848 C -304.633 85.772 -305.357 85.67 -306.07 85.543 C -306.103 85.538 -306.136 85.536 -306.168 85.53 C -306.651 85.442 -307.116 85.317 -307.585 85.201 C -307.841 85.138 -308.106 85.095 -308.356 85.022 C -308.587 84.956 -308.809 84.868 -309.037 84.792 C -310.331 84.36 -311.562 83.783 -312.658 82.984 C -313.048 82.7 -313.425 82.395 -313.779 82.055 C -314.283 81.57 -314.747 81.09 -315.184 80.605 C -315.616 80.055 -318.256 76.457 -318.399 70.791 L -318.429 67.253 L -318.429 56.336 L -318.429 16.918 L -318.429 15.809 L -318.429 12.667 L -318.429 -12.109 C -316.731 -12.21 -315.026 -12.248 -313.329 -12.248 C -310.385 -12.248 -307.19 -12.027 -304.35 -11.21 C -302.333 -10.63 -300.45 -9.706 -298.927 -8.243 C -298.422 -7.758 -297.958 -7.277 -297.522 -6.793 C -297.079 -6.229 -294.307 -2.468 -294.292 3.448 L -294.277 4.851 L -294.277 15.769 L -294.277 16.918 L -294.278 16.918 L -294.278 22.242 L -294.278 32.127 L -294.281 32.127 L -294.281 50.916 L -294.266 50.916 C -294.267 51.015 -294.277 51.111 -294.277 51.211 C -294.277 56.261 -292.915 60.867 -290.677 64.409 C -289.777 65.947 -288.649 67.354 -287.214 68.563 C -285.134 70.318 -282.771 71.806 -280.102 72.454 C -277.841 73.003 -275.501 73.13 -273.203 72.75 C -271.154 72.412 -269.128 71.853 -267.237 70.991 C -265.693 70.285 -264.221 69.477 -262.753 68.627 C -261.573 67.945 -260.279 67.563 -258.935 67.372 C -257.687 67.194 -256.471 67.388 -255.294 67.819 C -253.657 68.421 -252.102 69.541 -250.806 70.691 C -249.578 71.779 -248.352 73.175 -247.804 74.75 C -247.383 75.955 -247.235 77.156 -247.554 78.401 C -247.879 79.677 -248.541 80.781 -249.391 81.778 M -21.873 58.044 L -21.873 68.962 L -21.889 70.364 C -21.903 76.28 -24.675 80.041 -25.118 80.605 C -25.555 81.09 -26.019 81.57 -26.523 82.055 C -28.046 83.519 -29.93 84.443 -31.946 85.023 C -34.786 85.84 -37.981 86.06 -40.925 86.06 C -42.622 86.06 -44.328 86.023 -46.025 85.921 L -46.025 6.895 L -46.024 6.895 L -46.024 4.851 L -46.009 3.448 C -45.994 -2.468 -43.224 -6.229 -42.78 -6.793 C -42.343 -7.277 -41.88 -7.758 -41.375 -8.243 C -39.852 -9.706 -37.969 -10.63 -35.952 -11.21 C -33.111 -12.027 -29.916 -12.248 -26.973 -12.248 C -25.275 -12.248 -23.57 -12.21 -21.873 -12.109 L -21.873 16.918 Z M -180.258 16.918 L -180.259 16.918 L -180.259 15.769 L -180.259 10.346 L -180.646 9.823 C -183.22 6.362 -186.27 3.146 -189.893 .774 C -193.206 -1.396 -196.872 -2.674 -200.848 -2.669 C -203.64 -2.665 -206.407 -2.088 -208.756 -.522 C -209.309 -.155 -209.82 .253 -210.305 .687 C -213.96 3.527 -217.2 11.66 -216.967 20.523 C -216.967 20.527 -216.966 20.53 -216.966 20.534 L -216.966 57.005 L -216.961 57.005 L -216.961 58.155 L -216.961 69.073 L -216.977 70.475 C -216.991 76.391 -219.762 80.152 -220.205 80.716 C -220.643 81.201 -221.105 81.681 -221.61 82.166 C -223.134 83.629 -225.017 84.554 -227.033 85.134 C -229.874 85.951 -233.069 86.171 -236.012 86.171 C -237.709 86.171 -239.415 86.134 -241.112 86.032 L -241.112 59.721 L -241.112 57.005 L -241.112 33.263 L -241.112 23.524 L -241.112 20.134 C -241.112 13.913 -240.387 6.913 -237.675 1.234 C -235.569 -3.171 -232.486 -6.646 -228.107 -8.88 C -223.31 -11.33 -217.854 -12.137 -212.517 -12.105 C -208.31 -12.081 -203.914 -11.625 -199.906 -10.295 C -196.627 -9.206 -193.487 -7.679 -190.738 -5.569 C -186.666 -2.444 -183.764 1.198 -180.383 4.961 L -180.379 4.857 L -180.259 4.993 L -180.259 4.851 L -180.243 3.448 C -180.229 -2.468 -177.457 -6.229 -177.014 -6.793 C -176.577 -7.277 -176.113 -7.758 -175.608 -8.243 C -174.086 -9.706 -172.202 -10.63 -170.186 -11.21 C -167.346 -12.027 -164.15 -12.248 -161.207 -12.248 C -159.51 -12.248 -157.804 -12.21 -156.106 -12.109 L -156.106 -11.779 L -156.106 16.918 L -156.106 86.171 L -180.258 86.171 Z M -355.12 45.207 L -357.667 44.426 C -362.853 42.84 -367.962 40.829 -372.723 38.22 C -376.865 35.946 -380.611 33.011 -383.427 29.187 C -386.291 25.3 -387.542 20.784 -387.538 15.977 C -387.536 12.529 -387.086 8.899 -385.682 5.719 C -384.516 3.086 -382.801 .814 -380.322 -.706 C -377.898 -2.19 -375.198 -2.832 -372.366 -2.812 C -369.911 -2.794 -367.519 -2.353 -365.26 -1.376 C -363.298 -.528 -361.421 .548 -359.762 1.901 C -358.335 3.064 -356.963 4.301 -355.678 5.621 L -355.12 6.195 Z M -333.318 68.938 C -331.499 64.247 -330.967 58.813 -330.967 53.819 L -330.967 16.918 L -330.967 -12.109 C -331.113 -12.118 -331.259 -12.12 -331.404 -12.127 C -332.939 -12.21 -334.479 -12.246 -336.012 -12.247 C -336.03 -12.247 -336.049 -12.248 -336.067 -12.248 L -336.068 -12.248 C -336.114 -12.248 -336.163 -12.245 -336.209 -12.245 C -338.901 -12.238 -341.78 -12.025 -344.415 -11.357 C -344.624 -11.304 -344.842 -11.27 -345.047 -11.21 C -345.849 -10.979 -346.621 -10.675 -347.366 -10.323 C -347.691 -10.169 -348.009 -10.005 -348.319 -9.825 C -349.087 -9.38 -349.817 -8.87 -350.47 -8.243 C -350.48 -8.233 -350.489 -8.223 -350.499 -8.213 C -350.992 -7.738 -351.446 -7.268 -351.874 -6.793 C -352.28 -6.276 -354.63 -3.076 -355.037 1.999 L -357.933 -.998 C -359.938 -3.068 -362.161 -4.913 -364.542 -6.539 C -367.249 -8.387 -370.36 -9.671 -373.487 -10.611 C -377.589 -11.843 -382.072 -12.235 -386.337 -12.248 C -389.584 -12.257 -392.784 -11.747 -395.888 -10.804 C -399.002 -9.86 -401.883 -8.36 -404.479 -6.403 C -407.098 -4.427 -409.125 -1.952 -410.637 .959 C -412.343 4.241 -413.003 7.922 -413.028 11.595 C -413.058 16.07 -412.179 20.391 -409.969 24.312 C -407.661 28.403 -403.908 31.513 -399.991 33.997 C -395.952 36.563 -391.612 38.664 -387.15 40.385 C -381.499 42.567 -375.482 44.132 -369.608 45.601 L -355.12 49.222 L -355.12 59.552 C -355.12 63.714 -355.506 68.564 -357.197 72.417 C -358.453 75.275 -360.335 77.856 -363.138 79.352 C -365.654 80.695 -368.424 81.258 -371.268 81.208 C -373.989 81.159 -376.746 80.726 -379.183 79.457 C -381.246 78.382 -383.091 76.937 -384.573 75.138 C -385.891 73.537 -387.048 71.781 -387.904 69.889 C -388.604 68.341 -389.179 66.763 -389.726 65.157 C -390.166 63.866 -390.889 62.728 -391.775 61.698 C -392.596 60.744 -393.638 60.09 -394.81 59.641 C -396.439 59.016 -398.345 58.835 -400.079 58.847 C -401.72 58.858 -403.561 59.105 -405.011 59.928 C -406.12 60.56 -407.021 61.366 -407.602 62.513 C -408.195 63.687 -408.426 64.953 -408.441 66.264 C -408.458 67.662 -408.052 69.166 -407.574 70.467 C -406.879 72.356 -405.697 74.075 -404.375 75.58 C -402.544 77.665 -400.089 79.316 -397.66 80.624 C -394.193 82.491 -390.136 83.685 -386.3 84.509 C -380.75 85.699 -374.781 86.019 -369.117 86.058 C -365.537 86.082 -361.961 85.939 -358.398 85.589 C -354.869 85.242 -351.401 84.484 -348.049 83.33 C -344.807 82.215 -341.91 80.484 -339.362 78.187 C -336.588 75.685 -334.658 72.396 -333.318 68.938 M -421.971 2.483 L -419.297 -1.689 C -424.839 -6.632 -428.256 -9.321 -436.306 -11.298 C -439.783 -12.154 -443.496 -12.234 -447.071 -12.248 C -450.623 -12.263 -454.187 -11.907 -457.633 -11.035 C -460.735 -10.247 -463.561 -8.875 -466.061 -6.881 C -468.691 -4.784 -470.508 -1.969 -471.774 1.119 C -473.463 5.238 -473.952 10.032 -473.952 14.45 L -473.952 34.88 L -473.952 52.271 L -473.952 76.186 L -473.952 80.111 L -473.952 114.243 C -472.254 114.345 -470.549 114.382 -468.852 114.382 C -465.908 114.382 -462.712 114.162 -459.873 113.345 C -457.856 112.765 -455.973 111.84 -454.449 110.377 C -453.945 109.892 -453.481 109.412 -453.044 108.927 C -452.601 108.363 -449.83 104.602 -449.815 98.686 L -449.799 97.284 L -449.799 86.366 L -449.799 83.574 L -426.866 83.574 L -426.866 78.15 L -449.799 78.15 L -449.799 45.839 L -449.799 17.92 L -449.799 13.493 C -449.799 10.16 -449.559 6.39 -448.525 3.202 C -447.733 .762 -446.414 -1.559 -444.263 -3.039 C -442.252 -4.42 -439.904 -5.047 -437.495 -4.913 C -430.357 -4.517 -426.819 -1.575 -421.971 2.483 " fill="#eb9d84"/>
</g>
</g>
</g>
</svg>
